<?xml version="1.0" standalone="no"?>
<!DOCTYPE svg PUBLIC "-//W3C//DTD SVG 20010904//EN"
 "http://www.w3.org/TR/2001/REC-SVG-20010904/DTD/svg10.dtd">
<svg version="1.0" xmlns="http://www.w3.org/2000/svg"
 width="186.000000pt" height="186.000000pt" viewBox="0 0 186.000000 186.000000"
 preserveAspectRatio="xMidYMid meet">

<g transform="translate(0.000000,186.000000) scale(0.100000,-0.100000)"
fill="#000000" stroke="none">
<path d="M643 1777 c-99 -37 -172 -133 -181 -241 -4 -46 -9 -54 -46 -81 -55
-40 -88 -106 -81 -163 15 -131 113 -194 241 -157 58 17 73 12 74 -22 0 -20 24
-16 164 26 137 42 158 53 138 73 -10 10 -37 4 -129 -27 -65 -22 -122 -41 -129
-43 -6 -2 -15 10 -19 25 -10 40 -22 44 -74 21 -95 -41 -176 -21 -213 53 -52
104 28 219 153 219 21 0 39 4 39 10 0 13 -34 30 -59 30 -18 0 -21 6 -21 38 1
74 61 161 138 198 48 23 146 23 188 1 70 -36 134 -114 134 -162 0 -27 18 -16
25 15 6 27 10 30 43 30 147 -2 207 -185 87 -264 -27 -18 -34 -56 -11 -56 23 0
75 49 96 91 65 127 -50 281 -196 262 -25 -3 -33 3 -57 37 -55 81 -204 123
-304 87z"/>
<path d="M903 1292 c-63 -19 -83 -30 -83 -43 0 -29 12 -29 90 -3 40 13 76 21
79 18 3 -3 43 -116 88 -251 l82 -246 -25 -62 -25 -61 -68 -22 c-84 -27 -94
-27 -134 0 -70 49 -74 57 -138 249 -51 151 -67 189 -81 189 -10 0 -18 -1 -18
-3 0 -1 27 -84 59 -182 32 -99 62 -192 65 -207 5 -22 34 -46 138 -114 73 -47
137 -88 144 -91 6 -2 15 4 19 14 33 86 105 283 105 290 0 4 -40 130 -89 278
-72 221 -92 270 -107 272 -11 0 -56 -10 -101 -25z"/>
<path d="M850 1108 c0 -7 27 -94 60 -192 33 -99 60 -182 60 -186 0 -3 -22 -14
-50 -24 -55 -20 -68 -46 -22 -46 15 1 72 15 127 33 83 27 101 37 103 55 4 26
-1 27 -62 6 -26 -9 -49 -15 -50 -13 -2 2 -31 88 -66 192 -51 155 -65 187 -81
187 -10 0 -19 -6 -19 -12z"/>
<path d="M758 309 c-10 -5 -18 -17 -18 -25 0 -8 -7 -17 -15 -20 -8 -4 -15 -14
-15 -23 -1 -14 -2 -14 -11 2 -15 26 -102 24 -130 -4 l-21 -21 -15 22 c-13 18
-22 21 -55 17 -37 -5 -38 -4 -36 21 3 25 0 27 -37 27 l-40 0 -3 -50 c-3 -45
-6 -52 -37 -67 -55 -28 -91 -8 -74 41 9 24 26 25 72 6 16 -7 18 -3 15 31 -3
38 -4 39 -47 42 -64 5 -89 -4 -111 -41 -30 -49 -26 -100 10 -131 29 -24 37
-25 140 -24 l109 0 3 41 c4 59 28 61 28 3 l0 -46 40 0 c34 0 40 3 40 21 l0 20
26 -20 c27 -21 91 -28 124 -13 19 9 24 30 10 47 -7 8 -7 21 -1 36 11 29 19 13
23 -46 3 -40 3 -40 43 -40 l40 0 -3 46 c-3 39 -1 47 16 51 17 5 20 14 20 51 0
42 -2 45 -30 51 -38 8 -39 7 -60 -5z m-91 -145 c-3 -3 -12 -4 -19 -1 -8 3 -5
6 6 6 11 1 17 -2 13 -5z"/>
<path d="M926 273 c-3 -21 -6 -66 -6 -101 l0 -63 43 3 c41 3 42 4 39 36 -1 17
2 32 8 32 5 0 10 -4 10 -9 0 -4 11 -20 25 -35 28 -31 65 -34 72 -7 5 19 5 19
24 0 13 -13 33 -19 67 -19 59 0 91 25 93 73 1 31 2 31 9 -7 9 -48 32 -66 83
-66 30 0 40 4 44 20 5 19 6 19 29 1 34 -27 253 -28 285 -2 31 25 18 58 -26 67
-43 8 -38 22 5 16 29 -4 31 -2 28 19 -3 22 -9 24 -61 27 -36 2 -64 -2 -73 -9
-24 -20 -12 -52 26 -71 l35 -18 -40 6 c-52 9 -53 9 -48 37 7 35 -21 57 -73 57
-31 0 -50 -6 -64 -20 -20 -20 -20 -20 -20 0 0 13 -7 20 -19 20 -10 0 -21 9
-24 20 -4 15 -14 20 -41 20 -26 0 -36 -4 -36 -15 0 -9 -7 -18 -15 -21 -8 -4
-15 -13 -15 -22 0 -13 -2 -13 -18 1 -28 25 -100 22 -129 -5 l-23 -21 0 46 0
47 -41 0 c-41 0 -41 -1 -36 -30 9 -42 -6 -45 -28 -4 -15 28 -24 34 -50 34 -30
0 -33 -3 -39 -37z m298 -78 c3 -9 -1 -18 -10 -22 -19 -7 -28 2 -21 22 8 19 23
19 31 0z m216 -3 c0 -19 -35 -28 -45 -11 -9 14 4 29 26 29 12 0 19 -7 19 -18z
m123 -29 c-7 -2 -19 -2 -25 0 -7 3 -2 5 12 5 14 0 19 -2 13 -5z"/>
</g>
</svg>
